<?xml version="1.0" encoding="iso-8859-1"?>
<!-- Generator: Adobe Illustrator 16.0.0, SVG Export Plug-In . SVG Version: 6.00 Build 0)  -->
<!DOCTYPE svg PUBLIC "-//W3C//DTD SVG 1.1//EN" "http://www.w3.org/Graphics/SVG/1.1/DTD/svg11.dtd">
<svg version="1.1" id="Capa_1" xmlns="http://www.w3.org/2000/svg" xmlns:xlink="http://www.w3.org/1999/xlink" x="0px" y="0px"
	 width="22.422px" height="30.065px" viewBox="0 0 22.422 30.065" style="enable-background:new 0 0 22.422 30.065;"
	 xml:space="preserve">
<path d="M16.795,6.649V5.712H5.629v0.937c0,0,1.697,4.73,4.885,6.914v2.272c0,0-3.516,3.422-4.885,7.354v1.072h11.166v-1.072
	c-1.782-4.341-4.887-7.354-4.887-7.354v-2.272C16.243,9.838,16.795,6.649,16.795,6.649z"/>
<path d="M20.818,4.909V3.221h1.604V0H0v3.221h1.604v1.688c0,2.579,4.626,9.62,4.843,10.128c-0.212,0.509-4.843,7.551-4.843,10.119
	v1.687H0v3.223h22.422v-3.223h-1.604v-1.687c0-2.58-4.627-9.576-4.875-10.124C16.191,14.485,20.818,7.486,20.818,4.909z
	 M19.22,25.156v1.687H3.204v-1.687c0-1.853,4.907-9.194,4.907-10.124S3.204,6.762,3.204,4.909V3.221H19.22v1.688
	c0,1.853-4.948,9.193-4.948,10.123S19.22,23.303,19.22,25.156z"/>
<g>
</g>
<g>
</g>
<g>
</g>
<g>
</g>
<g>
</g>
<g>
</g>
<g>
</g>
<g>
</g>
<g>
</g>
<g>
</g>
<g>
</g>
<g>
</g>
<g>
</g>
<g>
</g>
<g>
</g>
</svg>
